<svg xmlns="http://www.w3.org/2000/svg" viewBox="0 0 1500 1080" width="1500" height="1080"><title>Dream Store, mockup mobile</title>
<style>
@import url('https://fonts.googleapis.com/css2?family=Manrope:wght@400;500;600;700&amp;display=swap');
text { font-family: Manrope, Poppins, 'Segoe UI', sans-serif; }
.w4 { font-weight: 400; } .w5 { font-weight: 500; } .w6 { font-weight: 600; } .w7 { font-weight: 700; }
@keyframes marquee { from { transform: translateX(0); } to { transform: translateX(-1500px); } }
.marquee { animation: marquee 22s linear infinite; }
@keyframes spin { to { transform: rotate(360deg); } }
.spin { transform-box: fill-box; transform-origin: center; animation: spin 14s linear infinite; }
@keyframes float { 0%,100% { transform: translateY(0); } 50% { transform: translateY(-10px); } }
.float { animation: float 5s cubic-bezier(0.32,0.72,0,1) infinite; }
.float2 { animation: float 6s cubic-bezier(0.32,0.72,0,1) infinite 1.2s; }
@keyframes pulse { 0%,100% { opacity: 1; } 50% { opacity: .25; } }
.pulse { animation: pulse 1.6s ease-in-out infinite; }
@keyframes toast { 0%,8% { transform: translateY(24px); opacity: 0; } 16%,84% { transform: translateY(0); opacity: 1; } 92%,100% { transform: translateY(24px); opacity: 0; } }
.toast { animation: toast 7s cubic-bezier(0.32,0.72,0,1) infinite; }
@keyframes lit { 0%,20% { opacity: .28; } 45%,100% { opacity: 1; } }
.lit { animation: lit 4s cubic-bezier(0.32,0.72,0,1) infinite alternate; }
@media (prefers-reduced-motion: reduce) { .marquee,.spin,.float,.float2,.pulse,.toast,.lit { animation: none; } }
</style>
<rect x="0" y="0" width="1500" height="1080" rx="0" fill="#ECE7FA" /><text x="60" y="64" font-size="30" fill="#1A0F3D" class="w7" text-anchor="start" >Dream Store no celular</text><text x="60" y="92" font-size="16" fill="#5B5478" class="w5" text-anchor="start" >Home, página de produto e sacola com barra de frete grátis</text><g transform="translate(90 120)"><rect x="-12" y="-12" width="414" height="868" rx="56" fill="#1A0F3D"/><clipPath id="clip90"><rect width="390" height="844" rx="44"/></clipPath><g clip-path="url(#clip90)"><rect x="0" y="0" width="390" height="844" rx="0" fill="#F6F3FF" /><rect x="0" y="50" width="390" height="30" rx="0" fill="#1A0F3D" /><text x="195" y="70" font-size="12" fill="#FFFFFF" class="w6" text-anchor="middle" >Frete grátis acima de R$ 299</text><g transform="translate(20 94) scale(1)" fill="none" stroke="#1A0F3D" stroke-width="2" stroke-linecap="round" stroke-linejoin="round"><path d="M4 7 H20 M4 12 H20 M4 17 H20"/></g><g transform="translate(108 118) scale(0.9166666666666666)"><rect x="0" y="-22" width="30" height="30" rx="9" fill="#6D3AF5"/><path d="M21 -3 a9 9 0 1 1 -5.5 -12.5 a7 7 0 1 0 5.5 12.5 Z" fill="#FFD23F"/><circle cx="22" cy="-14" r="1.8" fill="#FF4F9A"/><text x="40" y="0" font-size="24" fill="#1A0F3D" class="w7" letter-spacing="-0.5">dream</text><text x="112" y="0" font-size="24" fill="#1A0F3D" class="w5" letter-spacing="-0.5">store</text></g><g transform="translate(306 94) scale(1)" fill="none" stroke="#1A0F3D" stroke-width="2" stroke-linecap="round" stroke-linejoin="round"><circle cx="11" cy="11" r="7"/><path d="M16 16 L21 21"/></g><g transform="translate(346 94) scale(1)" fill="none" stroke="#1A0F3D" stroke-width="2" stroke-linecap="round" stroke-linejoin="round"><rect x="4" y="7" width="16" height="14" rx="2.5"/><path d="M8.5 10 V6.5 a3.5 3.5 0 0 1 7 0 V10"/></g><circle cx="368" cy="96" r="8" fill="#FF4F9A"/><text x="368" y="100" font-size="11" fill="#1A0F3D" class="w7" text-anchor="middle" >2</text><rect x="16" y="136" width="358" height="568" rx="32" fill="#6D3AF5" /><rect x="36" y="164" width="206" height="30" rx="15" fill="#7F52F7" /><circle cx="54" cy="179" r="4" fill="#FFD23F" class="pulse"/><text x="66" y="184" font-size="12" fill="#FFFFFF" class="w6" text-anchor="start" >Drop Nebula já disponível</text><text x="36" y="240" font-size="36" fill="#FFFFFF" class="w7" text-anchor="start" letter-spacing="-1">Vista o jogo.</text><text x="36" y="280" font-size="36" fill="#FFFFFF" class="w7" text-anchor="start" letter-spacing="-1">Domine o setup.</text><text x="36" y="312" font-size="14" fill="#E9E2FF" class="w5" text-anchor="start" >Drops semanais, 10x sem juros e 5% no Pix.</text><rect x="36" y="332" width="52" height="48" rx="12" fill="#1A0F3D" /><text x="62" y="358" font-size="20" fill="#FFFFFF" class="w7" text-anchor="middle" >02</text><text x="62" y="373" font-size="11" fill="#B9B0D9" class="w5" text-anchor="middle" >dias</text><rect x="96" y="332" width="52" height="48" rx="12" fill="#1A0F3D" /><text x="122" y="358" font-size="20" fill="#FFFFFF" class="w7" text-anchor="middle" >14</text><text x="122" y="373" font-size="11" fill="#B9B0D9" class="w5" text-anchor="middle" >h</text><rect x="156" y="332" width="52" height="48" rx="12" fill="#1A0F3D" /><text x="182" y="358" font-size="20" fill="#FFFFFF" class="w7" text-anchor="middle" >37</text><text x="182" y="373" font-size="11" fill="#B9B0D9" class="w5" text-anchor="middle" >min</text><rect x="216" y="332" width="52" height="48" rx="12" fill="#1A0F3D" /><text x="242" y="358" font-size="20" fill="#FFFFFF" class="w7" text-anchor="middle" >08</text><text x="242" y="373" font-size="11" fill="#B9B0D9" class="w5" text-anchor="middle" >s</text><rect x="36" y="400" width="150" height="180" rx="20" fill="#FF4F9A" /><g transform="translate(43 415) scale(0.68)"><g class="float"><path d="M58 66 L26 150 Q24 160 34 163 L50 166 L66 104 Z" fill="#5028C9"/><path d="M142 66 L174 150 Q176 160 166 163 L150 166 L134 104 Z" fill="#5028C9"/><rect x="54" y="60" width="92" height="120" rx="14" fill="#6D3AF5"/><path d="M68 64 Q100 14 132 64 Q100 86 68 64 Z" fill="#5028C9"/><path d="M78 62 Q100 34 122 62 Q100 74 78 62 Z" fill="#1A0F3D" opacity=".55"/><rect x="70" y="128" width="60" height="30" rx="10" fill="#5028C9"/><path d="M92 72 L91 92 M108 72 L109 92" stroke="#FFFFFF" stroke-width="3" stroke-linecap="round"/><circle cx="100" cy="102" r="0" /><path d="M110 114 a11 11 0 1 1 -7 -10 a8.5 8.5 0 1 0 7 10 Z" fill="#FFD23F"/><rect x="54" y="168" width="92" height="12" rx="4" fill="#5028C9"/></g></g><rect x="198" y="400" width="156" height="84" rx="20" fill="#2EC5E8" /><g transform="translate(246 404) scale(0.38)"><g><path d="M48 112 Q48 36 100 36 Q152 36 152 112" stroke="#2A1B5C" stroke-width="14" fill="none" stroke-linecap="round"/><rect x="30" y="96" width="40" height="66" rx="18" fill="#1A0F3D"/><rect x="130" y="96" width="40" height="66" rx="18" fill="#1A0F3D"/><rect x="38" y="112" width="8" height="34" rx="4" fill="#FF4F9A"/><rect x="154" y="112" width="8" height="34" rx="4" fill="#FF4F9A"/><path d="M50 160 Q58 184 92 180" stroke="#2A1B5C" stroke-width="6" fill="none" stroke-linecap="round"/><circle cx="96" cy="180" r="7" fill="#FF4F9A"/></g></g><rect x="198" y="496" width="156" height="84" rx="20" fill="#FFD23F" /><g transform="translate(246 500) scale(0.38)"><g><path d="M100 26 C142 26 152 70 152 112 C152 162 130 184 100 184 C70 184 48 162 48 112 C48 70 58 26 100 26 Z" fill="#1A0F3D"/><path d="M100 26 L100 88 M50 88 L150 88" stroke="#2A1B5C" stroke-width="4"/><rect x="94" y="44" width="12" height="26" rx="6" fill="#2A1B5C"/><path d="M62 150 Q100 172 138 150" stroke="#2EC5E8" stroke-width="6" fill="none" stroke-linecap="round"/></g></g><rect x="36" y="600" width="318" height="52" rx="26.0" fill="#FFD23F" /><text x="195.0" y="631.76" font-size="16" fill="#1A0F3D" class="w6" text-anchor="middle" >Comprar o drop</text><polygon points="92.0,672.0 90.4,675.8 86.3,676.1 89.4,678.8 88.5,682.9 92.0,680.7 95.5,682.9 94.6,678.8 97.7,676.1 93.6,675.8" fill="#FFD23F"/><polygon points="106.0,672.0 104.4,675.8 100.3,676.1 103.4,678.8 102.5,682.9 106.0,680.7 109.5,682.9 108.6,678.8 111.7,676.1 107.6,675.8" fill="#FFD23F"/><polygon points="120.0,672.0 118.4,675.8 114.3,676.1 117.4,678.8 116.5,682.9 120.0,680.7 123.5,682.9 122.6,678.8 125.7,676.1 121.6,675.8" fill="#FFD23F"/><polygon points="134.0,672.0 132.4,675.8 128.3,676.1 131.4,678.8 130.5,682.9 134.0,680.7 137.5,682.9 136.6,678.8 139.7,676.1 135.6,675.8" fill="#FFD23F"/><polygon points="148.0,672.0 146.4,675.8 142.3,676.1 145.4,678.8 144.5,682.9 148.0,680.7 151.5,682.9 150.6,678.8 153.7,676.1 149.6,675.8" fill="#FFD23F"/><text x="162" y="683" font-size="12" fill="#FFFFFF" class="w5" text-anchor="start" >4,8 de 5 em 12.384 avaliações</text><text x="16" y="734" font-size="18" fill="#1A0F3D" class="w7" text-anchor="start" >Compre por categoria</text><rect x="16" y="744" width="84" height="28" rx="14" fill="#6D3AF5" /><text x="58" y="762" font-size="12" fill="#FFFFFF" class="w6" text-anchor="middle" >Moletons</text><rect x="108" y="744" width="84" height="28" rx="14" fill="#FF4F9A" /><text x="150" y="762" font-size="12" fill="#1A0F3D" class="w6" text-anchor="middle" >Camisetas</text><rect x="200" y="744" width="84" height="28" rx="14" fill="#2EC5E8" /><text x="242" y="762" font-size="12" fill="#1A0F3D" class="w6" text-anchor="middle" >Headsets</text><rect x="292" y="744" width="84" height="28" rx="14" fill="#FFD23F" /><text x="334" y="762" font-size="12" fill="#1A0F3D" class="w6" text-anchor="middle" >Teclados</text><rect x="0" y="780" width="390" height="64" rx="0" fill="#FFFFFF" stroke="#DDD5F5"/><g transform="translate(27 790) scale(1)" fill="none" stroke="#6D3AF5" stroke-width="2" stroke-linecap="round" stroke-linejoin="round"><path d="M4 11 L12 4 L20 11 V20 H4 Z"/><path d="M10 20 V14 H14 V20"/></g><text x="39" y="830" font-size="11" fill="#6D3AF5" class="w6" text-anchor="middle" >Início</text><g transform="translate(105 790) scale(1)" fill="none" stroke="#5B5478" stroke-width="2" stroke-linecap="round" stroke-linejoin="round"><circle cx="11" cy="11" r="7"/><path d="M16 16 L21 21"/></g><text x="117" y="830" font-size="11" fill="#5B5478" class="w6" text-anchor="middle" >Buscar</text><g transform="translate(183 790) scale(1)" fill="none" stroke="#5B5478" stroke-width="2" stroke-linecap="round" stroke-linejoin="round"><path d="M12 20 C4 14 2 10 4.5 6.5 C7 3.5 10.5 4.5 12 7.5 C13.5 4.5 17 3.5 19.5 6.5 C22 10 20 14 12 20 Z"/></g><text x="195" y="830" font-size="11" fill="#5B5478" class="w6" text-anchor="middle" >Favoritos</text><g transform="translate(261 790) scale(1)" fill="none" stroke="#5B5478" stroke-width="2" stroke-linecap="round" stroke-linejoin="round"><rect x="4" y="7" width="16" height="14" rx="2.5"/><path d="M8.5 10 V6.5 a3.5 3.5 0 0 1 7 0 V10"/></g><text x="273" y="830" font-size="11" fill="#5B5478" class="w6" text-anchor="middle" >Sacola</text><g transform="translate(339 790) scale(1)" fill="none" stroke="#5B5478" stroke-width="2" stroke-linecap="round" stroke-linejoin="round"><circle cx="12" cy="8" r="4"/><path d="M4 21 C5 16 8.5 14 12 14 C15.5 14 19 16 20 21"/></g><text x="351" y="830" font-size="11" fill="#5B5478" class="w6" text-anchor="middle" >Conta</text><text x="28" y="34" font-size="14" fill="#1A0F3D" class="w7" text-anchor="start" >9:41</text><rect x="330" y="22" width="28" height="14" rx="4" fill="#1A0F3D" /></g><rect x="135" y="10" width="120" height="30" rx="15" fill="#1A0F3D"/></g><text x="285" y="1020" font-size="18" fill="#1A0F3D" class="w7" text-anchor="middle" >Home</text><g transform="translate(555 120)"><rect x="-12" y="-12" width="414" height="868" rx="56" fill="#1A0F3D"/><clipPath id="clip555"><rect width="390" height="844" rx="44"/></clipPath><g clip-path="url(#clip555)"><rect x="0" y="0" width="390" height="844" rx="0" fill="#F6F3FF" /><rect x="0" y="0" width="390" height="430" rx="0" fill="#FF4F9A" /><circle cx="36" cy="80" r="20" fill="#FFFFFF"/><g transform="translate(24 68) scale(1)" fill="none" stroke="#1A0F3D" stroke-width="2" stroke-linecap="round" stroke-linejoin="round"><path d="M15 5 L8 12 L15 19"/></g><circle cx="354" cy="80" r="20" fill="#FFFFFF"/><g transform="translate(342 68) scale(1)" fill="none" stroke="#1A0F3D" stroke-width="2" stroke-linecap="round" stroke-linejoin="round"><path d="M12 20 C4 14 2 10 4.5 6.5 C7 3.5 10.5 4.5 12 7.5 C13.5 4.5 17 3.5 19.5 6.5 C22 10 20 14 12 20 Z"/></g><g transform="translate(55 110) scale(1.4)"><g class="float"><path d="M58 66 L26 150 Q24 160 34 163 L50 166 L66 104 Z" fill="#5028C9"/><path d="M142 66 L174 150 Q176 160 166 163 L150 166 L134 104 Z" fill="#5028C9"/><rect x="54" y="60" width="92" height="120" rx="14" fill="#6D3AF5"/><path d="M68 64 Q100 14 132 64 Q100 86 68 64 Z" fill="#5028C9"/><path d="M78 62 Q100 34 122 62 Q100 74 78 62 Z" fill="#1A0F3D" opacity=".55"/><rect x="70" y="128" width="60" height="30" rx="10" fill="#5028C9"/><path d="M92 72 L91 92 M108 72 L109 92" stroke="#FFFFFF" stroke-width="3" stroke-linecap="round"/><circle cx="100" cy="102" r="0" /><path d="M110 114 a11 11 0 1 1 -7 -10 a8.5 8.5 0 1 0 7 10 Z" fill="#FFD23F"/><rect x="54" y="168" width="92" height="12" rx="4" fill="#5028C9"/></g></g><rect x="163" y="404" width="24" height="6" rx="3" fill="#1A0F3D" /><rect x="193" y="404" width="12" height="6" rx="3" fill="#FFFFFF" /><rect x="211" y="404" width="12" height="6" rx="3" fill="#FFFFFF" /><rect x="229" y="404" width="12" height="6" rx="3" fill="#FFFFFF" /><rect x="16" y="446" width="58" height="26" rx="13" fill="#FFD23F" /><text x="45" y="463" font-size="12" fill="#1A0F3D" class="w7" text-anchor="middle" >Novo</text><rect x="82" y="446" width="168" height="26" rx="13" fill="#FFFFFF" stroke="#DDD5F5"/><circle cx="96" cy="459" r="4" fill="#FF4F9A" class="pulse"/><text x="106" y="463" font-size="12" fill="#1A0F3D" class="w6" text-anchor="start" >23 pessoas vendo agora</text><text x="16" y="504" font-size="24" fill="#1A0F3D" class="w7" text-anchor="start" >Moletom Nebula Oversized</text><polygon points="24.0,521.0 22.1,525.5 17.3,525.8 21.0,529.0 19.9,533.7 24.0,531.1 28.1,533.7 27.0,529.0 30.7,525.8 25.9,525.5" fill="#FFD23F"/><polygon points="40.0,521.0 38.1,525.5 33.3,525.8 37.0,529.0 35.9,533.7 40.0,531.1 44.1,533.7 43.0,529.0 46.7,525.8 41.9,525.5" fill="#FFD23F"/><polygon points="56.0,521.0 54.1,525.5 49.3,525.8 53.0,529.0 51.9,533.7 56.0,531.1 60.1,533.7 59.0,529.0 62.7,525.8 57.9,525.5" fill="#FFD23F"/><polygon points="72.0,521.0 70.1,525.5 65.3,525.8 69.0,529.0 67.9,533.7 72.0,531.1 76.1,533.7 75.0,529.0 78.7,525.8 73.9,525.5" fill="#FFD23F"/><polygon points="88.0,521.0 86.1,525.5 81.3,525.8 85.0,529.0 83.9,533.7 88.0,531.1 92.1,533.7 91.0,529.0 94.7,525.8 89.9,525.5" fill="#FFD23F"/><text x="104" y="533" font-size="12" fill="#5B5478" class="w5" text-anchor="start" >4,9 (1.284 avaliações)</text><text x="16" y="574" font-size="30" fill="#1A0F3D" class="w7" text-anchor="start" >R$ 289,90</text><text x="16" y="598" font-size="14" fill="#0E7C5A" class="w6" text-anchor="start" >R$ 275,40 no Pix ou 10x de R$ 28,99</text><text x="16" y="636" font-size="14" fill="#1A0F3D" class="w7" text-anchor="start" >Tamanho</text><text x="374" y="636" font-size="12" fill="#6D3AF5" class="w6" text-anchor="end" >Guia de medidas</text><rect x="16" y="648" width="64" height="44" rx="14" fill="#FFFFFF" stroke="#DDD5F5"/><text x="48" y="676" font-size="14" fill="#1A0F3D" class="w6" text-anchor="middle" >P</text><rect x="88" y="648" width="64" height="44" rx="14" fill="#FFFFFF" stroke="#DDD5F5"/><text x="120" y="676" font-size="14" fill="#1A0F3D" class="w6" text-anchor="middle" >M</text><rect x="160" y="648" width="64" height="44" rx="14" fill="#1A0F3D" /><text x="192" y="676" font-size="14" fill="#FFFFFF" class="w6" text-anchor="middle" >G</text><rect x="232" y="648" width="64" height="44" rx="14" fill="#FFFFFF" stroke="#DDD5F5"/><text x="264" y="676" font-size="14" fill="#1A0F3D" class="w6" text-anchor="middle" >GG</text><rect x="304" y="648" width="64" height="44" rx="14" fill="#FFFFFF" stroke="#DDD5F5"/><text x="336" y="676" font-size="14" fill="#5B5478" class="w6" text-anchor="middle" >XG</text><path d="M312 686 L360 654" stroke="#5B5478" stroke-width="1.5"/><text x="16" y="716" font-size="12" fill="#FF8A3D" class="w7" text-anchor="start" >Só restam 4 no tamanho G</text><rect x="0" y="740" width="390" height="104" rx="0" fill="#FFFFFF" stroke="#DDD5F5"/><rect x="16" y="756" width="358" height="52" rx="26.0" fill="#6D3AF5" /><text x="195.0" y="787.76" font-size="16" fill="#FFFFFF" class="w6" text-anchor="middle" >Adicionar à sacola</text><g transform="translate(88 814) scale(0.8)" fill="none" stroke="#5B5478" stroke-width="1.8" stroke-linecap="round" stroke-linejoin="round"><path d="M2 6 H14 V17 H2 Z M14 10 H19 L22 13 V17 H14"/><circle cx="6.5" cy="18" r="2"/><circle cx="17.5" cy="18" r="2"/></g><text x="112" y="830" font-size="12" fill="#5B5478" class="w5" text-anchor="start" >Chega entre 29/09 e 02/10</text><text x="28" y="34" font-size="14" fill="#1A0F3D" class="w7" text-anchor="start" >9:41</text><rect x="330" y="22" width="28" height="14" rx="4" fill="#1A0F3D" /></g><rect x="135" y="10" width="120" height="30" rx="15" fill="#1A0F3D"/></g><text x="750" y="1020" font-size="18" fill="#1A0F3D" class="w7" text-anchor="middle" >Produto</text><g transform="translate(1020 120)"><rect x="-12" y="-12" width="414" height="868" rx="56" fill="#1A0F3D"/><clipPath id="clip1020"><rect width="390" height="844" rx="44"/></clipPath><g clip-path="url(#clip1020)"><rect x="0" y="0" width="390" height="844" rx="0" fill="#F6F3FF" /><rect x="0" y="0" width="390" height="844" rx="0" fill="#1A0F3D" opacity=".45"/><rect x="0" y="60" width="390" height="784" rx="28" fill="#FFFFFF" /><text x="20" y="104" font-size="20" fill="#1A0F3D" class="w7" text-anchor="start" >Sua sacola (2)</text><g transform="translate(346 86) scale(1)" fill="none" stroke="#1A0F3D" stroke-width="2" stroke-linecap="round" stroke-linejoin="round"><path d="M6 6 L18 18 M18 6 L6 18"/></g><rect x="20" y="124" width="350" height="68" rx="16" fill="#ECE7FA" /><text x="36" y="150" font-size="14" fill="#1A0F3D" class="w6" text-anchor="start" >Faltam R$ 39,20 para o frete grátis</text><rect x="36" y="166" width="318" height="10" rx="5" fill="#FFFFFF" /><rect x="36" y="166" width="276" height="10" rx="5" fill="#6D3AF5" /><rect x="20" y="212" width="88" height="88" rx="16" fill="#FFD23F" /><g transform="translate(24 216) scale(0.4)"><g><path d="M62 48 L86 40 Q100 54 114 40 L138 48 L172 80 L152 102 L138 90 L138 172 L62 172 L62 90 L48 102 L28 80 Z" fill="#FFFFFF"/><path d="M86 40 Q100 54 114 40" stroke="#6D3AF5" stroke-width="5" fill="none"/><rect x="78" y="92" width="44" height="44" rx="6" fill="#FF4F9A"/><rect x="82" y="96" width="8" height="8" fill="#1A0F3D" opacity="0.2"/><rect x="92" y="96" width="8" height="8" fill="#1A0F3D" opacity="0.9"/><rect x="102" y="96" width="8" height="8" fill="#1A0F3D" opacity="0.9"/><rect x="112" y="96" width="8" height="8" fill="#1A0F3D" opacity="0.2"/><rect x="82" y="106" width="8" height="8" fill="#1A0F3D" opacity="0.9"/><rect x="92" y="106" width="8" height="8" fill="#1A0F3D" opacity="0.9"/><rect x="102" y="106" width="8" height="8" fill="#1A0F3D" opacity="0.2"/><rect x="112" y="106" width="8" height="8" fill="#1A0F3D" opacity="0.9"/><rect x="82" y="116" width="8" height="8" fill="#1A0F3D" opacity="0.9"/><rect x="92" y="116" width="8" height="8" fill="#1A0F3D" opacity="0.2"/><rect x="102" y="116" width="8" height="8" fill="#1A0F3D" opacity="0.9"/><rect x="112" y="116" width="8" height="8" fill="#1A0F3D" opacity="0.9"/><rect x="82" y="126" width="8" height="8" fill="#1A0F3D" opacity="0.2"/><rect x="92" y="126" width="8" height="8" fill="#1A0F3D" opacity="0.9"/><rect x="102" y="126" width="8" height="8" fill="#1A0F3D" opacity="0.9"/><rect x="112" y="126" width="8" height="8" fill="#1A0F3D" opacity="0.2"/></g></g><text x="124" y="236" font-size="16" fill="#1A0F3D" class="w6" text-anchor="start" >Camiseta Pixel Heavy</text><text x="124" y="258" font-size="12" fill="#5B5478" class="w5" text-anchor="start" >Branca, M</text><rect x="124" y="270" width="92" height="30" rx="15" fill="#FFFFFF" stroke="#DDD5F5"/><text x="140" y="290" font-size="14" fill="#1A0F3D" class="w7" text-anchor="start" >−</text><text x="170" y="290" font-size="14" fill="#1A0F3D" class="w7" text-anchor="middle" >1</text><text x="200" y="290" font-size="14" fill="#1A0F3D" class="w7" text-anchor="middle" >+</text><text x="370" y="290" font-size="16" fill="#1A0F3D" class="w7" text-anchor="end" >R$ 139,90</text><rect x="20" y="320" width="88" height="88" rx="16" fill="#FF8A3D" /><g transform="translate(24 324) scale(0.4)"><g><path d="M44 122 Q44 58 104 58 Q160 58 160 122 Z" fill="#1A0F3D"/><path d="M36 122 L178 122 Q186 140 160 142 L36 134 Q30 128 36 122 Z" fill="#6D3AF5"/><circle cx="104" cy="58" r="7" fill="#6D3AF5"/><path d="M112 98 a12 12 0 1 1 -8 -11 a9 9 0 1 0 8 11 Z" fill="#FF4F9A"/></g></g><text x="124" y="344" font-size="16" fill="#1A0F3D" class="w6" text-anchor="start" >Boné Dream Classic</text><text x="124" y="366" font-size="12" fill="#5B5478" class="w5" text-anchor="start" >Preto, único</text><rect x="124" y="378" width="92" height="30" rx="15" fill="#FFFFFF" stroke="#DDD5F5"/><text x="140" y="398" font-size="14" fill="#1A0F3D" class="w7" text-anchor="start" >−</text><text x="170" y="398" font-size="14" fill="#1A0F3D" class="w7" text-anchor="middle" >1</text><text x="200" y="398" font-size="14" fill="#1A0F3D" class="w7" text-anchor="middle" >+</text><text x="370" y="398" font-size="16" fill="#1A0F3D" class="w7" text-anchor="end" >R$ 119,90</text><text x="20" y="460" font-size="16" fill="#1A0F3D" class="w7" text-anchor="start" >Complete o look</text><rect x="20" y="474" width="350" height="84" rx="16" fill="#F6F3FF" /><rect x="32" y="486" width="60" height="60" rx="12" fill="#2EC5E8" /><g transform="translate(32 486) scale(0.3)"><g><rect x="14" y="62" width="172" height="92" rx="16" fill="#1A0F3D"/><rect x="14" y="62" width="172" height="92" rx="16" fill="none" stroke="#FFD23F" stroke-width="4"/><path d="M150 104 a18 18 0 1 1 -11 -17 a14 14 0 1 0 11 17 Z" fill="#FFD23F"/></g></g><text x="104" y="508" font-size="14" fill="#1A0F3D" class="w6" text-anchor="start" >Mousepad Void XL</text><text x="104" y="530" font-size="14" fill="#1A0F3D" class="w7" text-anchor="start" >R$ 127,90</text><rect x="290" y="498" width="68" height="36" rx="18" fill="#6D3AF5" /><text x="324" y="521" font-size="12" fill="#FFFFFF" class="w7" text-anchor="middle" >Incluir</text><rect x="20" y="574" width="350" height="48" rx="24" fill="#FFFFFF" stroke="#DDD5F5"/><text x="40" y="603" font-size="14" fill="#5B5478" class="w5" text-anchor="start" >Cupom de desconto</text><text x="350" y="603" font-size="14" fill="#6D3AF5" class="w7" text-anchor="end" >Aplicar</text><text x="20" y="660" font-size="16" fill="#5B5478" class="w5" text-anchor="start" >Subtotal</text><text x="370" y="660" font-size="16" fill="#1A0F3D" class="w7" text-anchor="end" >R$ 259,80</text><text x="20" y="686" font-size="14" fill="#0E7C5A" class="w6" text-anchor="start" >No Pix (5% off)</text><text x="370" y="686" font-size="14" fill="#0E7C5A" class="w7" text-anchor="end" >R$ 246,81</text><text x="20" y="710" font-size="12" fill="#5B5478" class="w5" text-anchor="start" >ou 10x de R$ 25,98 sem juros</text><rect x="20" y="736" width="350" height="56" rx="28.0" fill="#6D3AF5" /><text x="195.0" y="769.76" font-size="16" fill="#FFFFFF" class="w6" text-anchor="middle" >Finalizar compra</text><text x="195" y="816" font-size="12" fill="#5B5478" class="w5" text-anchor="middle" >Pagamento seguro e troca grátis em 30 dias</text><text x="28" y="34" font-size="14" fill="#1A0F3D" class="w7" text-anchor="start" >9:41</text><rect x="330" y="22" width="28" height="14" rx="4" fill="#1A0F3D" /></g><rect x="135" y="10" width="120" height="30" rx="15" fill="#1A0F3D"/></g><text x="1215" y="1020" font-size="18" fill="#1A0F3D" class="w7" text-anchor="middle" >Sacola</text></svg>